<?xml version="1.0" standalone="no"?>
<!DOCTYPE svg PUBLIC "-//W3C//DTD SVG 20010904//EN"
 "http://www.w3.org/TR/2001/REC-SVG-20010904/DTD/svg10.dtd">
<svg version="1.0" xmlns="http://www.w3.org/2000/svg"
 width="219.000000pt" height="230.000000pt" viewBox="0 0 219.000000 230.000000"
 preserveAspectRatio="xMidYMid meet">

<g transform="translate(0.000000,230.000000) scale(0.100000,-0.100000)"
fill="#000000" stroke="none">
<path d="M890 2175 c-36 -8 -99 -26 -140 -41 -579 -204 -858 -866 -599 -1422
129 -279 359 -476 664 -569 85 -25 101 -27 280 -27 179 0 195 2 279 27 119 37
220 85 310 147 419 289 569 839 355 1298 -130 280 -362 478 -664 568 -78 23
-111 27 -255 30 -118 3 -183 -1 -230 -11z m455 -144 c288 -85 520 -306 616
-584 39 -115 52 -212 46 -347 -13 -293 -164 -555 -412 -718 -125 -82 -263
-129 -432 -147 l-63 -6 0 395 0 395 97 3 97 3 18 115 c9 63 17 121 18 128 0 9
-29 12 -115 12 l-115 0 0 98 c0 75 4 103 17 122 26 38 31 40 126 40 l87 0 0
131 0 131 -137 -4 c-162 -5 -218 -23 -282 -93 -55 -60 -72 -121 -78 -287 l-6
-138 -73 0 -74 0 0 -130 0 -130 75 0 75 0 0 -371 0 -370 -23 7 c-52 16 -153
67 -216 108 -137 92 -248 222 -321 380 -64 136 -75 189 -75 376 0 194 11 243
85 397 124 255 353 436 630 498 97 22 342 14 435 -14z"/>
</g>
</svg>
